<svg width="41" height="40" viewBox="0 0 41 40" fill="none" xmlns="http://www.w3.org/2000/svg">
<g id="01 Atoms / Icons / account_circle" clip-path="url(#clip0_1573_1351)">
<path id="Vector" d="M20.5002 3.33301C11.3002 3.33301 3.8335 10.7997 3.8335 19.9997C3.8335 29.1997 11.3002 36.6663 20.5002 36.6663C29.7002 36.6663 37.1668 29.1997 37.1668 19.9997C37.1668 10.7997 29.7002 3.33301 20.5002 3.33301ZM20.5002 8.33301C23.2668 8.33301 25.5002 10.5663 25.5002 13.333C25.5002 16.0997 23.2668 18.333 20.5002 18.333C17.7335 18.333 15.5002 16.0997 15.5002 13.333C15.5002 10.5663 17.7335 8.33301 20.5002 8.33301ZM20.5002 31.9997C16.3335 31.9997 12.6502 29.8663 10.5002 26.633C10.5502 23.3163 17.1668 21.4997 20.5002 21.4997C23.8168 21.4997 30.4502 23.3163 30.5002 26.633C28.3502 29.8663 24.6668 31.9997 20.5002 31.9997Z" fill="black"/>
</g>
<defs>
<clipPath id="clip0_1573_1351">
<rect width="40" height="40" fill="white" transform="translate(0.5)"/>
</clipPath>
</defs>
</svg>
