<svg width="255" height="56" viewBox="0 0 255 56" fill="none" xmlns="http://www.w3.org/2000/svg">
<g clip-path="url(#clip0_2018_567)">
<path d="M28 56C43.464 56 56 43.464 56 28C56 12.536 43.464 0 28 0C12.536 0 0 12.536 0 28C0 43.464 12.536 56 28 56Z" fill="url(#paint0_linear_2018_567)"/>
<path d="M28 8.75C17.3688 8.75 8.75 17.3688 8.75 28C8.75 38.6313 17.3688 47.25 28 47.25C38.6313 47.25 47.25 38.6313 47.25 28C47.25 17.3688 38.6313 8.75 28 8.75ZM46.27 27.2125L44.7125 27.2283L44.7055 26.5755L46.2648 26.5615L46.2718 27.2125H46.27ZM45.871 23.8472L44.3258 24.0625L44.2365 23.415L45.78 23.2015L45.871 23.849V23.8472ZM44.541 19.7487L44.8105 20.3438L43.3913 20.9878L43.1217 20.3945L44.5392 19.7487H44.541ZM42.595 16.7825L43.0255 17.2725L41.853 18.3015L41.4242 17.8115L42.595 16.7825ZM40.3112 14.3447L40.8047 14.7717L39.788 15.9512L39.2927 15.526L40.3112 14.3447ZM37.59 12.1415L38.136 12.4967L37.2872 13.804L36.7413 13.4505L37.59 12.1415ZM34.4925 10.6138L35.1242 10.78L34.7287 12.2867L34.097 12.1205L34.4943 10.6155L34.4925 10.6138ZM31.0887 9.77725L31.738 9.82975L31.6085 11.3838L30.9592 11.3295L31.0887 9.77725ZM27.5643 9.366H28.2152V10.9253H27.5643V9.366ZM24.6698 9.77725L24.7992 11.3295L24.1482 11.3855L24.0188 9.8315L24.6698 9.77725ZM21.2642 10.6138L21.6597 12.1205L21.0298 12.2867L20.6325 10.7817L21.2625 10.6138H21.2642ZM18.1685 12.1415L19.0172 13.4505L18.4695 13.804L17.6208 12.4967L18.1685 12.1415ZM15.4472 14.3465L16.464 15.526L15.9705 15.9512L14.9538 14.7717L15.4472 14.3447V14.3465ZM13.1652 16.779L14.3377 17.808L13.9055 18.298L12.7347 17.2708L13.1652 16.7807V16.779ZM11.221 19.747L12.6385 20.3927L12.3707 20.9878L10.9515 20.3403L11.221 19.747ZM9.98025 23.1997L11.5255 23.4132L11.4345 24.0607L9.891 23.8455L9.98025 23.198V23.1997ZM9.49725 26.5597L11.0547 26.5738L11.0495 27.2265L9.492 27.2108L9.49725 26.5597ZM9.64075 30.2207L11.1912 30.0633L11.256 30.7108L9.7055 30.8682L9.64075 30.2207ZM10.346 33.5352L11.865 33.1818L12.0137 33.817L10.4948 34.1705L10.346 33.5352ZM12.0452 37.4955L11.7232 36.9285L13.076 36.155L13.3998 36.722L12.0452 37.4955ZM14.2538 40.2728L13.7795 39.8247L14.8523 38.6925L15.3247 39.1405L14.2538 40.2728ZM16.7475 42.49L16.2173 42.112L17.122 40.8415L17.6523 41.2213L16.7475 42.49ZM19.6595 44.4342L19.082 44.1315L19.8065 42.7525L20.384 43.0553L19.6595 44.4342ZM22.8812 45.6733L22.2372 45.5648L22.4945 44.0283L23.1385 44.1367L22.8812 45.6733ZM25.697 46.2017L25.6847 44.6425L26.3375 44.6355L26.3498 46.1947L25.697 46.2017ZM11.795 28C11.795 19.0645 19.0645 11.795 28 11.795C36.9355 11.795 44.205 19.0645 44.205 28C44.205 36.9355 36.9355 44.205 28 44.205C19.0645 44.205 11.795 36.9355 11.795 28ZM29.2705 46.3418L29.2495 46.3435L29.1077 44.793L29.757 44.7335L29.778 44.73L29.9198 46.2822L29.2705 46.3418ZM32.7443 45.6102L32.473 44.0755L33.1152 43.9618L33.3865 45.4983L32.7443 45.6102ZM36.0588 44.4658L35.525 43.001L36.1375 42.7787L36.6712 44.2435L36.0588 44.4658ZM39.0005 42.6632L38.038 41.4383L38.549 41.0322L39.5133 42.2572L39.0005 42.6615V42.6632ZM41.51 40.2185L40.39 39.137L40.8415 38.6662L41.9615 39.7513L41.51 40.2185ZM43.561 37.5847L42.301 36.666L42.686 36.1392L43.946 37.0562L43.561 37.5847ZM45.227 34.4523L43.7535 33.9377L43.9688 33.3218L45.4405 33.8362L45.227 34.4505V34.4523ZM46.1457 30.8997L44.5882 30.8298L44.618 30.177L46.1755 30.2487L46.1457 30.8997ZM34.188 36.281H34.1862C34.447 36.561 34.454 36.988 34.1968 37.2435C33.9395 37.4972 33.5143 37.485 33.236 37.219V37.2207L32.7495 36.7308L31.6435 35.609C30.9258 35.9513 30.1349 36.1117 29.3405 36.0763H26.299C23.5445 36.1777 21 34.8022 21.2065 30.3292C21.2135 30.142 21.1943 27.734 21.1943 27.5433L21.1995 25.7372C21.1943 21.2747 22.2845 19.2517 25.291 18.536C25.6322 18.4537 27.4925 18.4135 27.8477 18.4135H28.007C28.364 18.4135 30.0055 18.4537 30.3467 18.536C33.3532 19.2517 34.4435 21.2747 34.4383 25.7372L34.4435 27.545C34.4435 27.7358 34.4243 30.142 34.433 30.331C34.545 32.746 33.852 33.796 32.7582 34.8355L33.7033 35.7892L34.188 36.281ZM29.5348 34.657C29.883 34.657 30.2277 34.608 30.5602 34.51L29.9373 33.88L29.4508 33.3865C29.1883 33.1065 29.183 32.6813 29.4403 32.4275C29.6975 32.172 30.1227 32.1842 30.401 32.4485L30.8857 32.9385L31.759 33.824C31.8039 33.7832 31.8471 33.7406 31.8885 33.6962C32.704 32.8422 33.0925 32.1282 33.0138 30.3957C33.0085 30.2732 33.0068 30.2715 33.019 28.098L33.0225 27.5433L33.0207 26.3218C33.019 25.5763 33.0173 25.8388 33.0173 25.7355C33.019 23.758 32.795 22.0395 32.3138 21.2642C32.0285 20.8022 31.535 20.2843 30.0422 19.9237C29.3658 19.8683 28.6875 19.8385 28.0087 19.8345H27.8477C27.398 19.8345 25.893 19.88 25.599 19.9237C24.1045 20.2843 23.611 20.8022 23.3258 21.2642C22.8445 22.0395 22.6205 23.758 22.624 25.7355C22.624 25.8405 22.6222 25.5763 22.6205 26.3218C22.62 26.9138 22.62 27.5059 22.6205 28.098C22.6327 30.2715 22.6327 30.275 22.6257 30.3957C22.547 32.1282 22.9373 32.8422 23.7528 33.6962C24.5105 34.4907 25.4502 34.6588 26.1047 34.6588L26.2465 34.6552L26.2727 34.6535H29.393C29.4402 34.657 29.4875 34.657 29.5348 34.657Z" fill="white"/>
</g>
<path d="M94.5781 32.7305C94.5651 33.707 94.4609 34.6576 94.2656 35.582C94.0833 36.5065 93.8099 37.3789 93.4453 38.1992C93.1589 38.8372 92.8138 39.4492 92.4102 40.0352C92.0195 40.6081 91.5703 41.1354 91.0625 41.6172L95.7695 45.875L92.2344 49.0195L86.8242 44.0195C86.3685 44.1367 85.8997 44.2279 85.418 44.293C84.9492 44.3581 84.4609 44.3906 83.9531 44.3906C82.8073 44.3906 81.7526 44.2344 80.7891 43.9219C79.8255 43.6094 78.9531 43.1732 78.1719 42.6133C77.3776 42.0404 76.681 41.3568 76.082 40.5625C75.4961 39.7682 75.0208 38.9154 74.6562 38.0039C74.3307 37.2096 74.0833 36.3698 73.9141 35.4844C73.7448 34.5859 73.6602 33.668 73.6602 32.7305V27.8086C73.6602 26.7279 73.7383 25.6927 73.8945 24.7031C74.0638 23.7005 74.3047 22.776 74.6172 21.9297C74.9818 20.875 75.4701 19.9245 76.082 19.0781C76.694 18.2188 77.4232 17.4896 78.2695 16.8906C79.0378 16.3438 79.8971 15.9206 80.8477 15.6211C81.7982 15.3216 82.8333 15.1719 83.9531 15.1719C85.0729 15.1719 86.1211 15.3216 87.0977 15.6211C88.0742 15.9206 88.9596 16.3438 89.7539 16.8906C90.6523 17.5286 91.4401 18.3099 92.1172 19.2344C92.7943 20.1589 93.3281 21.194 93.7188 22.3398C94.0052 23.1471 94.2201 24.013 94.3633 24.9375C94.5065 25.849 94.5781 26.806 94.5781 27.8086V32.7305ZM89.0117 27.7695C89.0117 27.0013 88.9727 26.2656 88.8945 25.5625C88.8164 24.8594 88.6862 24.2148 88.5039 23.6289C88.3477 23.0169 88.1198 22.4635 87.8203 21.9688C87.5208 21.4609 87.1823 21.0312 86.8047 20.6797C86.4401 20.3802 86.0169 20.1458 85.5352 19.9766C85.0664 19.8073 84.5391 19.7227 83.9531 19.7227C83.3932 19.7227 82.8919 19.8008 82.4492 19.957C82.0065 20.1133 81.6159 20.3411 81.2773 20.6406C80.7826 21.0703 80.3854 21.6237 80.0859 22.3008C79.7995 22.9648 79.5911 23.7135 79.4609 24.5469C79.3828 25.0286 79.3242 25.543 79.2852 26.0898C79.2461 26.6237 79.2266 27.1836 79.2266 27.7695V32.7305C79.2266 33.2253 79.2461 33.7201 79.2852 34.2148C79.3372 34.7096 79.4154 35.1849 79.5195 35.6406C79.6758 36.3438 79.9036 36.9818 80.2031 37.5547C80.5026 38.1276 80.8802 38.6029 81.3359 38.9805C81.6615 39.2669 82.0391 39.4883 82.4688 39.6445C82.9115 39.8008 83.4062 39.8789 83.9531 39.8789C84.513 39.8789 85.0208 39.8008 85.4766 39.6445C85.9323 39.4753 86.3424 39.2539 86.707 38.9805C87.1628 38.6029 87.5469 38.1341 87.8594 37.5742C88.1849 37.0143 88.4388 36.4154 88.6211 35.7773C88.7513 35.2956 88.849 34.8008 88.9141 34.293C88.9792 33.7721 89.0117 33.2513 89.0117 32.7305V27.7695ZM111.236 44L110.924 41.0312C110.208 42.0859 109.342 42.9128 108.326 43.5117C107.324 44.1107 106.223 44.4102 105.025 44.4102C103.932 44.4102 102.929 44.2409 102.018 43.9023C101.106 43.5638 100.325 43.0234 99.6739 42.2812C99.0229 41.5521 98.5151 40.6211 98.1505 39.4883C97.7989 38.3424 97.6231 36.9688 97.6231 35.3672V22.8672H103.053V35.4062C103.053 36.2656 103.111 36.9883 103.229 37.5742C103.359 38.1602 103.561 38.6289 103.834 38.9805C104.108 39.3451 104.466 39.6055 104.908 39.7617C105.351 39.918 105.891 39.9961 106.529 39.9961C107.102 39.9961 107.617 39.9375 108.072 39.8203C108.541 39.7031 108.951 39.5339 109.303 39.3125C109.602 39.1172 109.869 38.8828 110.104 38.6094C110.338 38.3359 110.54 38.0299 110.709 37.6914V22.8672H116.158V44H111.236ZM133.344 44C133.214 43.7396 133.103 43.4401 133.012 43.1016C132.921 42.763 132.843 42.4049 132.778 42.0273C132.478 42.3529 132.133 42.6589 131.742 42.9453C131.352 43.2318 130.922 43.4792 130.453 43.6875C129.972 43.9089 129.444 44.0781 128.871 44.1953C128.298 44.3255 127.68 44.3906 127.016 44.3906C125.935 44.3906 124.939 44.2344 124.028 43.9219C123.129 43.6094 122.354 43.1732 121.703 42.6133C121.052 42.0534 120.544 41.3893 120.18 40.6211C119.815 39.8398 119.633 38.9935 119.633 38.082C119.633 36.9102 119.861 35.875 120.317 34.9766C120.772 34.0651 121.456 33.3164 122.367 32.7305C123.188 32.1966 124.197 31.793 125.395 31.5195C126.606 31.2331 127.992 31.0898 129.555 31.0898H132.582V29.8398C132.582 29.3451 132.504 28.9023 132.348 28.5117C132.192 28.1081 131.957 27.763 131.645 27.4766C131.319 27.1771 130.909 26.9492 130.414 26.793C129.932 26.6237 129.366 26.5391 128.715 26.5391C128.142 26.5391 127.647 26.6107 127.231 26.7539C126.814 26.8841 126.475 27.0729 126.215 27.3203C125.981 27.5417 125.805 27.8086 125.688 28.1211C125.583 28.4336 125.531 28.7786 125.531 29.1562H120.102C120.102 28.2578 120.297 27.4049 120.688 26.5977C121.091 25.7904 121.677 25.0807 122.445 24.4688C123.201 23.8568 124.125 23.375 125.219 23.0234C126.326 22.6589 127.589 22.4766 129.008 22.4766C130.284 22.4766 131.469 22.6328 132.563 22.9453C133.669 23.2578 134.626 23.7201 135.434 24.332C136.241 24.944 136.873 25.7188 137.328 26.6562C137.784 27.5807 138.012 28.6549 138.012 29.8789V38.9414C138.012 40.0742 138.083 41.0117 138.227 41.7539C138.37 42.4961 138.578 43.1341 138.852 43.668V44H133.344ZM128.168 40.1914C128.715 40.1914 129.223 40.1263 129.692 39.9961C130.16 39.8659 130.583 39.6966 130.961 39.4883C131.339 39.2799 131.664 39.0456 131.938 38.7852C132.211 38.5117 132.426 38.2383 132.582 37.9648V34.332H129.809C128.962 34.332 128.24 34.4167 127.641 34.5859C127.042 34.7422 126.554 34.9635 126.176 35.25C125.798 35.5495 125.518 35.9076 125.336 36.3242C125.154 36.7279 125.063 37.1706 125.063 37.6523C125.063 38.0299 125.128 38.3815 125.258 38.707C125.401 39.0195 125.603 39.2865 125.863 39.5078C126.124 39.7161 126.443 39.8854 126.82 40.0156C127.211 40.1328 127.66 40.1914 128.168 40.1914ZM142.834 44V22.8672H147.756L148.088 25.7969C148.362 25.4062 148.661 25.0482 148.987 24.7227C149.312 24.3971 149.657 24.1042 150.022 23.8438C150.647 23.401 151.33 23.0625 152.073 22.8281C152.815 22.5938 153.602 22.4766 154.436 22.4766C155.503 22.4766 156.48 22.6328 157.365 22.9453C158.251 23.2578 159.019 23.7526 159.67 24.4297C160.308 25.1198 160.803 26.0052 161.155 27.0859C161.519 28.1536 161.701 29.4557 161.701 30.9922V44H156.272V31.0703C156.272 30.237 156.174 29.5534 155.979 29.0195C155.796 28.4727 155.53 28.043 155.178 27.7305C154.826 27.418 154.403 27.2031 153.908 27.0859C153.414 26.9557 152.854 26.8906 152.229 26.8906C151.708 26.8906 151.226 26.9492 150.783 27.0664C150.354 27.1836 149.97 27.3594 149.631 27.5938C149.358 27.763 149.11 27.9648 148.889 28.1992C148.668 28.4336 148.466 28.694 148.283 28.9805V44H142.834ZM175.489 17.6914V22.8672H183.379V26.8711H175.489V35.9531C175.489 36.7214 175.573 37.3659 175.743 37.8867C175.925 38.3945 176.179 38.7982 176.504 39.0977C176.83 39.4102 177.22 39.6315 177.676 39.7617C178.145 39.8919 178.666 39.957 179.239 39.957C179.655 39.957 180.078 39.9375 180.508 39.8984C180.951 39.8594 181.374 39.8073 181.778 39.7422C182.168 39.6901 182.533 39.6315 182.871 39.5664C183.223 39.5013 183.522 39.4362 183.77 39.3711L184.297 43.1016C183.92 43.3229 183.477 43.5182 182.969 43.6875C182.461 43.8438 181.921 43.974 181.348 44.0781C180.775 44.1823 180.176 44.2604 179.551 44.3125C178.939 44.3776 178.334 44.4102 177.735 44.4102C176.576 44.4102 175.521 44.2604 174.571 43.9609C173.633 43.6484 172.832 43.1667 172.168 42.5156C171.491 41.8776 170.97 41.0638 170.606 40.0742C170.241 39.0716 170.059 37.8737 170.059 36.4805V26.8711H165.235V22.8672H170.059V17.6914H175.489ZM189.666 22.8672H201.17V39.5859H206.893V44H189.666V39.5859H195.682V27.3008H189.666V22.8672ZM195.291 17.457C195.291 17.0404 195.363 16.6562 195.506 16.3047C195.662 15.9401 195.877 15.6276 196.151 15.3672C196.424 15.1198 196.75 14.9245 197.127 14.7812C197.518 14.638 197.948 14.5664 198.416 14.5664C199.38 14.5664 200.142 14.8398 200.702 15.3867C201.274 15.9206 201.561 16.6107 201.561 17.457C201.561 18.3034 201.274 19 200.702 19.5469C200.142 20.0807 199.38 20.3477 198.416 20.3477C197.948 20.3477 197.518 20.276 197.127 20.1328C196.75 19.9896 196.424 19.7878 196.151 19.5273C195.877 19.2799 195.662 18.9805 195.506 18.6289C195.363 18.2643 195.291 17.8737 195.291 17.457ZM224.704 44L224.391 41.0312C223.675 42.0859 222.809 42.9128 221.793 43.5117C220.791 44.1107 219.691 44.4102 218.493 44.4102C217.399 44.4102 216.396 44.2409 215.485 43.9023C214.573 43.5638 213.792 43.0234 213.141 42.2812C212.49 41.5521 211.982 40.6211 211.618 39.4883C211.266 38.3424 211.09 36.9688 211.09 35.3672V22.8672H216.52V35.4062C216.52 36.2656 216.579 36.9883 216.696 37.5742C216.826 38.1602 217.028 38.6289 217.301 38.9805C217.575 39.3451 217.933 39.6055 218.375 39.7617C218.818 39.918 219.359 39.9961 219.997 39.9961C220.569 39.9961 221.084 39.9375 221.54 39.8203C222.008 39.7031 222.418 39.5339 222.77 39.3125C223.069 39.1172 223.336 38.8828 223.571 38.6094C223.805 38.3359 224.007 38.0299 224.176 37.6914V22.8672H229.625V44H224.704ZM236.987 22.8672L237.143 25.4258C237.547 24.5143 238.1 23.7982 238.803 23.2773C239.519 22.7435 240.385 22.4766 241.401 22.4766C241.896 22.4766 242.338 22.5352 242.729 22.6523C243.12 22.7695 243.458 22.9518 243.745 23.1992C243.966 23.3815 244.155 23.6029 244.311 23.8633C244.48 24.1107 244.624 24.3971 244.741 24.7227C244.923 24.4102 245.125 24.1302 245.346 23.8828C245.581 23.6224 245.835 23.401 246.108 23.2188C246.447 22.9844 246.831 22.8021 247.26 22.6719C247.69 22.5417 248.159 22.4766 248.667 22.4766C249.305 22.4766 249.897 22.5938 250.444 22.8281C251.004 23.0625 251.492 23.4336 251.909 23.9414C252.312 24.4622 252.625 25.1328 252.846 25.9531C253.081 26.7604 253.198 27.75 253.198 28.9219V44H248.256V28.9023C248.256 28.4987 248.211 28.1667 248.12 27.9062C248.042 27.6458 247.931 27.4375 247.788 27.2812C247.644 27.138 247.475 27.0404 247.28 26.9883C247.098 26.9232 246.909 26.8906 246.713 26.8906C246.505 26.8906 246.316 26.9167 246.147 26.9688C245.991 27.0208 245.841 27.0924 245.698 27.1836C245.581 27.2747 245.476 27.3789 245.385 27.4961C245.294 27.6003 245.216 27.724 245.151 27.8672C245.151 27.8932 245.151 27.9518 245.151 28.043C245.151 28.1341 245.151 28.2578 245.151 28.4141V44H240.366V28.8828C240.366 28.4792 240.327 28.1471 240.249 27.8867C240.17 27.6263 240.066 27.4245 239.936 27.2812C239.793 27.138 239.63 27.0404 239.448 26.9883C239.266 26.9232 239.07 26.8906 238.862 26.8906C238.628 26.8906 238.419 26.9297 238.237 27.0078C238.055 27.0859 237.892 27.1966 237.749 27.3398C237.644 27.444 237.553 27.5677 237.475 27.7109C237.397 27.8542 237.325 28.0104 237.26 28.1797V44H232.319V22.8672H236.987Z" fill="black"/>
<defs>
<linearGradient id="paint0_linear_2018_567" x1="0" y1="28" x2="56" y2="28" gradientUnits="userSpaceOnUse">
<stop stop-color="#30CFD0"/>
<stop offset="1" stop-color="#330867"/>
</linearGradient>
<clipPath id="clip0_2018_567">
<rect width="56" height="56" fill="white"/>
</clipPath>
</defs>
</svg>
