<svg width="56" height="56" viewBox="0 0 56 56" fill="none" xmlns="http://www.w3.org/2000/svg">
<g id="QASH 1" clip-path="url(#clip0_1472_272)">
<g id="Group">
<path id="Vector" d="M28 56C43.464 56 56 43.464 56 28C56 12.536 43.464 0 28 0C12.536 0 0 12.536 0 28C0 43.464 12.536 56 28 56Z" fill="url(#paint0_linear_1472_272)"/>
<path id="Vector_2" d="M28 8.75C17.3688 8.75 8.75 17.3688 8.75 28C8.75 38.6313 17.3688 47.25 28 47.25C38.6313 47.25 47.25 38.6313 47.25 28C47.25 17.3688 38.6313 8.75 28 8.75ZM46.27 27.2125L44.7125 27.2283L44.7055 26.5755L46.2648 26.5615L46.2718 27.2125H46.27ZM45.871 23.8472L44.3258 24.0625L44.2365 23.415L45.78 23.2015L45.871 23.849V23.8472ZM44.541 19.7487L44.8105 20.3438L43.3913 20.9878L43.1217 20.3945L44.5392 19.7487H44.541ZM42.595 16.7825L43.0255 17.2725L41.853 18.3015L41.4242 17.8115L42.595 16.7825ZM40.3112 14.3447L40.8047 14.7717L39.788 15.9512L39.2927 15.526L40.3112 14.3447ZM37.59 12.1415L38.136 12.4967L37.2872 13.804L36.7413 13.4505L37.59 12.1415ZM34.4925 10.6138L35.1242 10.78L34.7287 12.2867L34.097 12.1205L34.4943 10.6155L34.4925 10.6138ZM31.0887 9.77725L31.738 9.82975L31.6085 11.3838L30.9592 11.3295L31.0887 9.77725ZM27.5643 9.366H28.2152V10.9253H27.5643V9.366ZM24.6698 9.77725L24.7992 11.3295L24.1482 11.3855L24.0188 9.8315L24.6698 9.77725ZM21.2642 10.6138L21.6597 12.1205L21.0298 12.2867L20.6325 10.7817L21.2625 10.6138H21.2642ZM18.1685 12.1415L19.0172 13.4505L18.4695 13.804L17.6208 12.4967L18.1685 12.1415ZM15.4472 14.3465L16.464 15.526L15.9705 15.9512L14.9538 14.7717L15.4472 14.3447V14.3465ZM13.1652 16.779L14.3377 17.808L13.9055 18.298L12.7347 17.2708L13.1652 16.7807V16.779ZM11.221 19.747L12.6385 20.3927L12.3707 20.9878L10.9515 20.3403L11.221 19.747ZM9.98025 23.1997L11.5255 23.4132L11.4345 24.0607L9.891 23.8455L9.98025 23.198V23.1997ZM9.49725 26.5597L11.0547 26.5738L11.0495 27.2265L9.492 27.2108L9.49725 26.5597ZM9.64075 30.2207L11.1912 30.0633L11.256 30.7108L9.7055 30.8682L9.64075 30.2207ZM10.346 33.5352L11.865 33.1818L12.0137 33.817L10.4948 34.1705L10.346 33.5352ZM12.0452 37.4955L11.7232 36.9285L13.076 36.155L13.3998 36.722L12.0452 37.4955ZM14.2538 40.2728L13.7795 39.8247L14.8523 38.6925L15.3247 39.1405L14.2538 40.2728ZM16.7475 42.49L16.2173 42.112L17.122 40.8415L17.6523 41.2213L16.7475 42.49ZM19.6595 44.4342L19.082 44.1315L19.8065 42.7525L20.384 43.0553L19.6595 44.4342ZM22.8812 45.6733L22.2372 45.5648L22.4945 44.0283L23.1385 44.1367L22.8812 45.6733ZM25.697 46.2017L25.6847 44.6425L26.3375 44.6355L26.3498 46.1947L25.697 46.2017ZM11.795 28C11.795 19.0645 19.0645 11.795 28 11.795C36.9355 11.795 44.205 19.0645 44.205 28C44.205 36.9355 36.9355 44.205 28 44.205C19.0645 44.205 11.795 36.9355 11.795 28ZM29.2705 46.3418L29.2495 46.3435L29.1077 44.793L29.757 44.7335L29.778 44.73L29.9198 46.2822L29.2705 46.3418ZM32.7443 45.6102L32.473 44.0755L33.1152 43.9618L33.3865 45.4983L32.7443 45.6102ZM36.0588 44.4658L35.525 43.001L36.1375 42.7787L36.6712 44.2435L36.0588 44.4658ZM39.0005 42.6632L38.038 41.4383L38.549 41.0322L39.5133 42.2572L39.0005 42.6615V42.6632ZM41.51 40.2185L40.39 39.137L40.8415 38.6662L41.9615 39.7513L41.51 40.2185ZM43.561 37.5847L42.301 36.666L42.686 36.1392L43.946 37.0562L43.561 37.5847ZM45.227 34.4523L43.7535 33.9377L43.9688 33.3218L45.4405 33.8362L45.227 34.4505V34.4523ZM46.1457 30.8997L44.5882 30.8298L44.618 30.177L46.1755 30.2487L46.1457 30.8997ZM34.188 36.281H34.1862C34.447 36.561 34.454 36.988 34.1968 37.2435C33.9395 37.4972 33.5143 37.485 33.236 37.219V37.2207L32.7495 36.7308L31.6435 35.609C30.9258 35.9513 30.1349 36.1117 29.3405 36.0763H26.299C23.5445 36.1777 21 34.8022 21.2065 30.3292C21.2135 30.142 21.1943 27.734 21.1943 27.5433L21.1995 25.7372C21.1943 21.2747 22.2845 19.2517 25.291 18.536C25.6322 18.4537 27.4925 18.4135 27.8477 18.4135H28.007C28.364 18.4135 30.0055 18.4537 30.3467 18.536C33.3532 19.2517 34.4435 21.2747 34.4383 25.7372L34.4435 27.545C34.4435 27.7358 34.4243 30.142 34.433 30.331C34.545 32.746 33.852 33.796 32.7582 34.8355L33.7033 35.7892L34.188 36.281ZM29.5348 34.657C29.883 34.657 30.2277 34.608 30.5602 34.51L29.9373 33.88L29.4508 33.3865C29.1883 33.1065 29.183 32.6813 29.4403 32.4275C29.6975 32.172 30.1227 32.1842 30.401 32.4485L30.8857 32.9385L31.759 33.824C31.8039 33.7832 31.8471 33.7406 31.8885 33.6962C32.704 32.8422 33.0925 32.1282 33.0138 30.3957C33.0085 30.2732 33.0068 30.2715 33.019 28.098L33.0225 27.5433L33.0207 26.3218C33.019 25.5763 33.0173 25.8388 33.0173 25.7355C33.019 23.758 32.795 22.0395 32.3138 21.2642C32.0285 20.8022 31.535 20.2843 30.0422 19.9237C29.3658 19.8683 28.6875 19.8385 28.0087 19.8345H27.8477C27.398 19.8345 25.893 19.88 25.599 19.9237C24.1045 20.2843 23.611 20.8022 23.3258 21.2642C22.8445 22.0395 22.6205 23.758 22.624 25.7355C22.624 25.8405 22.6222 25.5763 22.6205 26.3218C22.62 26.9138 22.62 27.5059 22.6205 28.098C22.6327 30.2715 22.6327 30.275 22.6257 30.3957C22.547 32.1282 22.9373 32.8422 23.7528 33.6962C24.5105 34.4907 25.4502 34.6588 26.1047 34.6588L26.2465 34.6552L26.2727 34.6535H29.393C29.4402 34.657 29.4875 34.657 29.5348 34.657Z" fill="white"/>
</g>
</g>
<defs>
<linearGradient id="paint0_linear_1472_272" x1="0" y1="28" x2="56" y2="28" gradientUnits="userSpaceOnUse">
<stop stop-color="#30CFD0"/>
<stop offset="1" stop-color="#330867"/>
</linearGradient>
<clipPath id="clip0_1472_272">
<rect width="56" height="56" fill="white"/>
</clipPath>
</defs>
</svg>
