<svg width="40" height="40" viewBox="0 0 40 40" fill="none" xmlns="http://www.w3.org/2000/svg">
<g id="01 Atoms / Icons / shopping_cart" clip-path="url(#clip0_1573_1343)">
<path id="Vector" d="M11.6665 29.9997C9.83317 29.9997 8.34984 31.4997 8.34984 33.333C8.34984 35.1663 9.83317 36.6663 11.6665 36.6663C13.4998 36.6663 14.9998 35.1663 14.9998 33.333C14.9998 31.4997 13.4998 29.9997 11.6665 29.9997ZM1.6665 3.33301V6.66634H4.99984L10.9998 19.3163L8.74984 23.3997C8.48317 23.8663 8.33317 24.4163 8.33317 24.9997C8.33317 26.833 9.83317 28.333 11.6665 28.333H31.6665V24.9997H12.3665C12.1332 24.9997 11.9498 24.8163 11.9498 24.583L11.9998 24.383L13.4998 21.6663H25.9165C27.1665 21.6663 28.2665 20.983 28.8332 19.9497L34.7998 9.13301C34.9332 8.89967 34.9998 8.61634 34.9998 8.33301C34.9998 7.41634 34.2498 6.66634 33.3332 6.66634H8.68317L7.1165 3.33301H1.6665ZM28.3332 29.9997C26.4998 29.9997 25.0165 31.4997 25.0165 33.333C25.0165 35.1663 26.4998 36.6663 28.3332 36.6663C30.1665 36.6663 31.6665 35.1663 31.6665 33.333C31.6665 31.4997 30.1665 29.9997 28.3332 29.9997Z" fill="black"/>
</g>
<defs>
<clipPath id="clip0_1573_1343">
<rect width="40" height="40" fill="white"/>
</clipPath>
</defs>
</svg>
