<svg width="34" height="24" viewBox="0 0 34 24" fill="none" xmlns="http://www.w3.org/2000/svg">
<rect x="0.5" y="0.5" width="33" height="23" rx="3.5" fill="white" stroke="#D9D9D9"/>
<path fill-rule="evenodd" clip-rule="evenodd" d="M14.6145 18.4483L14.8352 16.9992L14.3435 16.9873H11.9956L13.6273 6.2937C13.6324 6.26132 13.6489 6.23126 13.6729 6.20987C13.697 6.18849 13.7277 6.17676 13.7599 6.17676H17.7188C19.0333 6.17676 19.9403 6.45939 20.4138 7.01734C20.6358 7.27908 20.7772 7.55267 20.8456 7.85364C20.9174 8.16951 20.9186 8.54685 20.8486 9.00715L20.8435 9.04063V9.33561L21.0655 9.46563C21.2525 9.56815 21.4011 9.68546 21.515 9.81975C21.7049 10.0436 21.8277 10.3281 21.8796 10.6652C21.9333 11.012 21.9156 11.4248 21.8277 11.892C21.7264 12.4295 21.5627 12.8976 21.3415 13.2805C21.1381 13.6334 20.879 13.9262 20.5712 14.153C20.2775 14.3686 19.9285 14.5322 19.5338 14.6369C19.1514 14.7398 18.7154 14.7917 18.2371 14.7917H17.9291C17.7088 14.7917 17.4948 14.8737 17.3268 15.0207C17.1583 15.1708 17.047 15.3758 17.0128 15.6L16.9895 15.7305L16.5995 18.2848L16.5819 18.3785C16.5772 18.4082 16.5691 18.423 16.5573 18.433C16.5468 18.4422 16.5316 18.4483 16.5169 18.4483H14.6145Z" fill="#28356A"/>
<path fill-rule="evenodd" clip-rule="evenodd" d="M21.2756 9.0752C21.2639 9.15328 21.2503 9.23307 21.2352 9.31506C20.7131 12.0857 18.9268 13.0429 16.6456 13.0429H15.484C15.205 13.0429 14.9698 13.2522 14.9265 13.5366L14.1633 18.5399C14.1351 18.7267 14.2743 18.895 14.4566 18.895H16.5168C16.7607 18.895 16.968 18.7118 17.0064 18.4632L17.0266 18.355L17.4145 15.8108L17.4394 15.6713C17.4774 15.4217 17.6851 15.2384 17.929 15.2384H18.2371C20.2331 15.2384 21.7957 14.4009 22.2524 11.9771C22.4431 10.9646 22.3443 10.1191 21.8395 9.52451C21.6868 9.34525 21.4973 9.19641 21.2756 9.0752Z" fill="#298FC2"/>
<path fill-rule="evenodd" clip-rule="evenodd" d="M20.7293 8.84993C20.6495 8.82586 20.5672 8.80411 20.4828 8.78443C20.3979 8.76525 20.311 8.74826 20.2215 8.73335C19.9084 8.68106 19.5652 8.65625 19.1976 8.65625H16.0946C16.0181 8.65625 15.9455 8.67409 15.8806 8.70635C15.7374 8.77747 15.6311 8.9175 15.6054 9.08894L14.9452 13.4105L14.9263 13.5365C14.9697 13.252 15.2048 13.0427 15.4838 13.0427H16.6454C18.9266 13.0427 20.7129 12.085 21.235 9.31488C21.2506 9.23289 21.2637 9.15309 21.2754 9.07501C21.1433 9.00255 21.0003 8.9406 20.8462 8.88781C20.8082 8.87473 20.7689 8.86215 20.7293 8.84993Z" fill="#22284F"/>
<path fill-rule="evenodd" clip-rule="evenodd" d="M15.6056 9.08911C15.6314 8.91767 15.7377 8.77764 15.8809 8.70701C15.9462 8.67463 16.0184 8.65679 16.0948 8.65679H19.1979C19.5654 8.65679 19.9086 8.68171 20.2218 8.73401C20.3113 8.7488 20.3982 8.76591 20.4831 8.78509C20.5675 8.80464 20.6498 8.82651 20.7296 8.85046C20.7692 8.86268 20.8085 8.87539 20.8469 8.88798C21.0009 8.94077 21.1441 9.00321 21.2761 9.07518C21.4315 8.05131 21.2748 7.35419 20.7393 6.72293C20.1488 6.02789 19.0831 5.73047 17.7194 5.73047H13.7603C13.4817 5.73047 13.2441 5.93979 13.2011 6.22475L11.5521 17.0283C11.5196 17.2421 11.679 17.4349 11.8876 17.4349H14.3318L15.6056 9.08911Z" fill="#28356A"/>
</svg>
